<svg width="60" height="60" xmlns="http://www.w3.org/2000/svg">
 <g>
  <title>background</title>
  <rect fill="none" id="canvas_background" height="62" width="62" y="-1" x="-1"/>
 </g>
 <g>
  <title>Layer 1</title>
  <rect x="0" y="0" stroke="null" id="svg_1" fill="#FFFFFF" height="83.000006" width="64.000008"/>
  <path id="svg_71" fill="#4D4D4D" d="m37.229222,16.571032l-0.938,0l0,-5.643l0,-2.929c0,-1.104 -0.896,-2 -2,-2c-1.104,0 -2,0.896 -2,2l0,2.929l0,5.643l-8.137,0l0,-5.643l0,-2.929c0,-1.104 -0.896,-2 -2,-2c-1.105,0 -2,0.896 -2,2l0,2.929l0,5.643l-0.938,0c-0.884,0 -1.6,0.716 -1.6,1.6l0,2.691c0,0.884 0.716,1.6 1.6,1.6l0,7.779c0,0.883 0.536,2.075 1.197,2.661l4.355,3.858l1.854,7.876c0,5.137 4.18,9.317 9.317,9.317l0,-3.2c-3.373,0 -6.117,-2.744 -6.117,-6.117l1.854,-7.876l4.355,-3.858c0.661,-0.586 1.197,-1.777 1.197,-2.661l0,-7.779c0.884,0 1.6,-0.716 1.6,-1.6l0,-2.691c0.001,-0.884 -0.715,-1.6 -1.599,-1.6zm-4.138,-4.843l2.4,0l0,4.843l-2.4,0l0,-4.843zm-12.137,0l2.4,0l0,4.843l-2.4,0l0,-4.843z"/>
  <defs>
   <filter height="47.955" width="21.214" y="101.207" x="164.394" filterUnits="userSpaceOnUse" id="Adobe_OpacityMaskFilter_00000047019156958529671780000011742642940819655575_"/>
  </defs>
  <mask id="SVGID_00000023259317352667705760000000663066558103857559_" height="47.955" width="21.214" y="101.207" x="164.394" maskUnits="userSpaceOnUse">
   <g id="svg_72" filter="url(#Adobe_OpacityMaskFilter_00000047019156958529671780000011742642940819655575_)">
    <rect id="svg_73" fill="url(#SVGID_00000159454425948691116230000006674823692993476788_)" height="27.608" width="84.444" y="101.207" x="133.577"/>
   </g>
  </mask>
 </g>
</svg>