<svg width="60" height="60" xmlns="http://www.w3.org/2000/svg">
 <g>
  <title>background</title>
  <rect fill="none" id="canvas_background" height="62" width="62" y="-1" x="-1"/>
 </g>
 <g>
  <title>Layer 1</title>
  <rect x="0" y="0" stroke="null" id="svg_1" fill="#FFFFFF" height="78.000006" width="85.000008"/>
  <g stroke="null" id="svg_81">
   <path stroke="null" id="svg_82" fill="#4D4D4D" d="m49.371405,5.842204l-39.262549,0c-2.116497,0 -3.834233,1.738955 -3.834233,3.881595l0,39.747534c0,2.150404 1.717737,3.881595 3.834233,3.881595l39.262549,0c2.124165,0 3.834233,-1.731191 3.834233,-3.881595l0,-39.747534c0,-2.142641 -1.710068,-3.881595 -3.834233,-3.881595zm0.769722,43.632041c0,0.428916 -0.343164,0.776319 -0.766847,0.776319l-39.267342,0c-0.423683,0 -0.766847,-0.347403 -0.766847,-0.776319l0,-39.753357c0,-0.427946 0.343164,-0.776319 0.766847,-0.776319l39.267342,0c0.423683,0 0.766847,0.347403 0.766847,0.776319l0,39.753357z"/>
   <path stroke="null" id="svg_83" fill="#4D4D4D" d="m23.923599,31.926523c1.27009,0 2.30054,-1.042208 2.30054,-2.328957c0,-1.285778 -1.03045,-2.328957 -2.30054,-2.328957c-1.271048,0 -2.30054,1.043179 -2.30054,2.328957c0,1.286749 1.029492,2.328957 2.30054,2.328957z"/>
   <path stroke="null" id="svg_84" fill="#4D4D4D" d="m35.557622,31.926523c1.27009,0 2.30054,-1.042208 2.30054,-2.328957c0,-1.285778 -1.03045,-2.328957 -2.30054,-2.328957c-1.271048,0 -2.30054,1.043179 -2.30054,2.328957c-0.000959,1.286749 1.029492,2.328957 2.30054,2.328957z"/>
   <path stroke="null" id="svg_85" fill="#4D4D4D" d="m29.740131,31.538363c1.05729,0 1.917117,-0.870448 1.917117,-1.940798c0,-1.069379 -0.859827,-1.940798 -1.917117,-1.940798c-1.05729,0 -1.917117,0.871418 -1.917117,1.940798c0,1.07035 0.859827,1.940798 1.917117,1.940798zm0,-0.776319c-0.177333,0 -0.343164,-0.043668 -0.492699,-0.117418l1.527942,-1.546816c0.071892,0.151382 0.115027,0.320232 0.115027,0.498785c0,0.643374 -0.515704,1.165449 -1.15027,1.165449zm0,-2.328957c0.177333,0 0.343164,0.043668 0.492699,0.116448l-1.527942,1.546816c-0.071892,-0.151382 -0.115986,-0.319261 -0.115986,-0.498785c0.000959,-0.642404 0.516663,-1.164479 1.151229,-1.164479z"/>
   <path stroke="null" id="svg_86" fill="#4D4D4D" d="m29.740131,42.732884c7.153721,0 12.975045,-5.892261 12.975045,-13.135318c0,-7.243057 -5.820366,-13.135318 -12.975045,-13.135318c-7.154679,0 -12.975045,5.892261 -12.975045,13.135318c0,7.242086 5.820366,13.135318 12.975045,13.135318zm0,-24.718968c6.318816,0 11.441352,5.185811 11.441352,11.58268c0,6.396869 -5.122536,11.58268 -11.441352,11.58268c-6.318816,0 -11.441352,-5.185811 -11.441352,-11.58268c0,-6.395898 5.122536,-11.58268 11.441352,-11.58268z"/>
   <path stroke="null" id="svg_87" fill="#4D4D4D" d="m10.872828,48.697925l37.734607,0l0,-38.200719l-37.734607,0l0,38.200719zm18.867303,-33.789286c8.000128,0 14.508739,6.589008 14.508739,14.687956c0,8.098948 -6.508611,14.687956 -14.508739,14.687956s-14.508739,-6.589008 -14.508739,-14.687956c0,-8.097978 6.508611,-14.687956 14.508739,-14.687956z"/>
  </g>
  <defs>
   <filter height="48.96" width="48.96" y="101.207" x="50.521" filterUnits="userSpaceOnUse" id="Adobe_OpacityMaskFilter_00000049935802055294006260000010897635246099568814_"/>
  </defs>
  <mask id="SVGID_00000043448563093693148680000009441876097798483342_" height="48.96" width="48.96" y="101.207" x="50.521" maskUnits="userSpaceOnUse">
   <g id="svg_88" filter="url(#Adobe_OpacityMaskFilter_00000049935802055294006260000010897635246099568814_)">
    <rect id="svg_89" fill="url(#SVGID_00000057861331823811631210000006853752110777188277_)" height="27.608" width="84.444" y="101.207" x="33.599"/>
   </g>
  </mask>
 </g>
</svg>