<svg width="59.99999999999999" height="59.99999999999999" xmlns="http://www.w3.org/2000/svg">
 <g>
  <title>background</title>
  <rect fill="none" id="canvas_background" height="62" width="62" y="-1" x="-1"/>
 </g>
 <g>
  <title>Layer 1</title>
  <rect x="0" y="0" stroke="null" id="svg_1" fill="#FFFFFF" height="80.000009" width="80.000009"/>
  <g id="svg_132">
   <path id="svg_133" fill="#4D4D4D" d="m10.448297,16.784572l0,24.966c0,3.97 3.23,7.2 7.2,7.2l11.683,0l0,-2.027l0,-3.232l0,-5.355l0,-8.588l0,-20.163l-11.683,0c-3.97,-0.002 -7.2,3.229 -7.2,7.199zm16.133,21.55l1.15,0l0,5.355l-1.15,0c-1.479,0 -2.678,-1.199 -2.678,-2.678s1.199,-2.677 2.678,-2.677z"/>
   <path id="svg_134" fill="#4D4D4D" d="m50.610297,4.786572l-40.96,0c-2.208,0 -4,1.792 -4,4l0,40.96c0,2.216 1.792,4 4,4l40.96,0c2.216,0 4,-1.784 4,-4l0,-40.96c0,-2.209 -1.783,-4 -4,-4zm0.803,36.963c0,4.853 -3.948,8.8 -8.8,8.8l-24.966,0c-4.852,0 -8.8,-3.947 -8.8,-8.8l0,-24.966c0,-4.852 3.948,-8.8 8.8,-8.8l24.966,0c4.852,0 8.8,3.947 8.8,8.8l0,24.966z"/>
   <path id="svg_135" fill="#4D4D4D" d="m42.613297,9.583572l-11.683,0l0,20.163l0,8.588l0,5.355l0,3.232l0,2.027l11.683,0c3.97,0 7.2,-3.23 7.2,-7.2l0,-24.966c0,-3.968 -3.23,-7.199 -7.2,-7.199zm-8.933,34.107l-1.15,0l0,-5.355l1.15,0c1.479,0 2.678,1.199 2.678,2.678s-1.199,2.677 -2.678,2.677z"/>
  </g>
  <defs>
   <filter height="48.96" width="48.96" y="203.27" x="150.52" filterUnits="userSpaceOnUse" id="Adobe_OpacityMaskFilter_00000176031494376883899940000008584868762328452774_"/>
  </defs>
  <mask id="SVGID_00000050624134823121463020000009353878943689523106_" height="48.96" width="48.96" y="203.27" x="150.52" maskUnits="userSpaceOnUse">
   <g id="svg_136" filter="url(#Adobe_OpacityMaskFilter_00000176031494376883899940000008584868762328452774_)">
    <rect id="svg_137" fill="url(#SVGID_00000098190504743938229300000000425622692061594012_)" height="27.608" width="84.444" y="203.27" x="133.577"/>
   </g>
  </mask>
 </g>
</svg>