<svg width="60" height="60" xmlns="http://www.w3.org/2000/svg">
 <g>
  <title>background</title>
  <rect fill="none" id="canvas_background" height="62" width="62" y="-1" x="-1"/>
 </g>
 <g>
  <title>Layer 1</title>
  <rect x="0" y="0" stroke="null" id="svg_1" fill="#FFFFFF" height="78.000006" width="63.000007"/>
  <g stroke="null" id="svg_113">
   <path stroke="null" id="svg_114" fill="#4D4D4D" d="m26.179004,14.961667c-0.779,0 -1.41,0.591018 -1.412,1.318353c0,0.727335 0.633,1.318353 1.412,1.318353c0.78,0 1.413,-0.591018 1.413,-1.318353c0,-0.728268 -0.633,-1.318353 -1.413,-1.318353z"/>
   <path stroke="null" id="svg_115" fill="#4D4D4D" d="m33.318004,14.961667c-0.78,0 -1.411,0.590084 -1.411,1.318353c0,0.727335 0.633,1.318353 1.411,1.318353c0.781,0 1.413,-0.591018 1.413,-1.318353c0,-0.728268 -0.631,-1.318353 -1.413,-1.318353z"/>
   <path stroke="null" id="svg_116" fill="#4D4D4D" d="m26.179004,30.271178c-0.779,-0.000934 -1.412,0.590084 -1.412,1.317419c0.002,0.728268 0.633,1.318353 1.412,1.318353c0.78,0 1.413,-0.590084 1.413,-1.318353c0,-0.727335 -0.633,-1.317419 -1.413,-1.317419z"/>
   <path stroke="null" id="svg_117" fill="#4D4D4D" d="m33.318004,30.270245c-0.778,0 -1.411,0.591018 -1.411,1.318353c0,0.728268 0.631,1.318353 1.411,1.318353c0.781,0 1.413,-0.591018 1.413,-1.318353s-0.631,-1.318353 -1.413,-1.318353z"/>
   <path stroke="null" id="svg_118" fill="#4D4D4D" d="m37.092004,7.157057l-4.097,-0.000934l0,-0.897264c0,-1.670349 -1.457,-3.029784 -3.246,-3.029784c-1.789,0 -3.244,1.359435 -3.244,3.029784l0,0.898198l-4.098,0c-1.299,0 -2.354,0.984096 -2.354,2.197877l0,44.469195c0,1.216582 1.055,2.19601 2.354,2.19601l14.685,0c1.304,0 2.353,-0.979428 2.353,-2.19601l-0.001,-44.469195c-0.001,-1.213781 -1.048,-2.197877 -2.352,-2.197877zm-8.704,-0.897264c0,-0.701192 0.61,-1.271669 1.361,-1.271669c0.752,-0.000934 1.363,0.569543 1.363,1.271669l0,0.898198l-2.725,0.000934l0,-0.899131l0.001,0zm1.361,47.195533c-3.877,0 -7.022,-2.935482 -7.022,-6.557217c0,-3.619868 3.143,-6.554416 7.021,-6.554416c3.878,0 7.023,2.934549 7.023,6.55535c0,3.620802 -3.143,6.556284 -7.022,6.556284zm-0.001,-15.309511c-3.878,0 -7.021,-2.936416 -7.021,-6.557217s3.143,-6.55535 7.022,-6.55535c3.877,0 7.022,2.935482 7.022,6.55535c0,3.621735 -3.145,6.557217 -7.023,6.557217zm0,-15.309511c-3.878,0 -7.022,-2.934549 -7.022,-6.55535c0,-3.620802 3.147,-6.556284 7.022,-6.556284c3.88,0 7.023,2.936416 7.023,6.556284c0,3.618934 -3.145,6.55535 -7.023,6.55535z"/>
   <path stroke="null" id="svg_119" fill="#4D4D4D" d="m26.179004,45.580689c-0.779,0 -1.41,0.591018 -1.41,1.317419c0,0.728268 0.631,1.318353 1.41,1.318353c0.78,0 1.412,-0.590084 1.412,-1.317419c0.001,-0.728268 -0.632,-1.318353 -1.412,-1.318353z"/>
   <path stroke="null" id="svg_120" fill="#4D4D4D" d="m33.318004,45.580689c-0.778,0 -1.411,0.590084 -1.411,1.317419c0,0.728268 0.633,1.318353 1.412,1.318353c0.78,0 1.412,-0.589151 1.412,-1.317419c0,-0.728268 -0.631,-1.318353 -1.413,-1.318353z"/>
  </g>
  <defs>
   <filter height="56.541" width="19.391" y="203.27" x="265.304" filterUnits="userSpaceOnUse" id="Adobe_OpacityMaskFilter_00000021809612787003747670000003491898171126840712_"/>
  </defs>
  <mask id="SVGID_00000055679610381504922540000011938367064296623780_" height="56.541" width="19.391" y="203.27" x="265.304" maskUnits="userSpaceOnUse">
   <g id="svg_121" filter="url(#Adobe_OpacityMaskFilter_00000021809612787003747670000003491898171126840712_)">
    <rect id="svg_122" fill="url(#SVGID_00000067227249068388216620000003293624633411828378_)" height="27.608" width="84.444" y="203.27" x="233.556"/>
   </g>
  </mask>
 </g>
</svg>