<svg width="60" height="60" xmlns="http://www.w3.org/2000/svg">
 <g>
  <title>background</title>
  <rect fill="none" id="canvas_background" height="62" width="62" y="-1" x="-1"/>
 </g>
 <g>
  <title>Layer 1</title>
  <rect id="svg_1" fill="#FFFFFF" height="60" width="60"/>
  <g id="svg_154">
   <path id="svg_155" fill="#4D4D4D" d="m54.149127,10.699857l-5.015,-5.014l-10.649,10.65l0.132,0.131l-7.733,4.465l0.023,0.039l-3.811,2.201l0.801,1.386l3.812,-2.202l0.023,0.04l8.124,-4.69l0.539,0.54l-6.584,6.583l0.033,0.033l-3.113,3.112l1.131,1.131l3.113,-3.112l0.033,0.032l6.583,-6.583l0.538,0.538l-4.69,8.125l0.04,0.023l-2.201,3.811l1.385,0.801l2.202,-3.811l0.04,0.022l4.464,-7.731l0.132,0.131l10.648,-10.651zm-22.272,11.15l-0.446,-0.771l7.479,-4.318l0.652,0.652l-7.685,4.437zm3.13,3.609l-0.632,-0.631l6.302,-6.301l0.631,0.631l-6.301,6.301zm3.75,2.946l-0.772,-0.446l4.437,-7.684l0.652,0.652l-4.317,7.478z"/>
   <path id="svg_156" fill="#4D4D4D" d="m34.072127,34.541857l-3.811,2.2l-0.023,-0.039l-8.124,4.691l-0.539,-0.539l6.583,-6.584l-0.032,-0.033l3.112,-3.111l-1.131,-1.132l-3.113,3.112l-0.032,-0.032l-6.583,6.584l-0.539,-0.539l4.691,-8.124l-0.042,-0.024l2.202,-3.811l-1.387,-0.8l-2.201,3.811l-0.039,-0.022l-4.463,7.731l-0.132,-0.131l-10.651,10.65l5.016,5.014l10.65,-10.649l-0.133,-0.132l7.559,-4.364l0.174,-0.1l-0.023,-0.039l3.813,-2.201l-0.802,-1.387zm-7.111,-0.902l0.632,0.631l-6.301,6.302l-0.632,-0.632l6.301,-6.301zm-3.75,-2.944l0.773,0.445l-4.438,7.686l-0.652,-0.652l4.317,-7.479zm-0.152,11.643l-0.652,-0.652l7.685,-4.436l0.445,0.771l-7.478,4.317z"/>
   <polygon id="svg_157" fill="#4D4D4D" points="21.094112396240234,22.242863416671753 18.005123138427734,24.18285059928894 21.31814193725586,22.657856702804565 20.507137298583984,26.212864637374878 21.771114349365234,22.790852308273315 23.711116790771484,25.878849744796753 22.185115814208984,22.566853284835815 25.742122650146484,23.376850843429565 22.320125579833984,22.11485743522644 25.408138275146484,20.172856092453003 22.09511947631836,21.699864149093628 22.906124114990234,18.143864393234253 21.64211654663086,21.565861463546753 19.703121185302734,18.477864027023315 21.22811508178711,21.790852308273315 17.672115325927734,20.979862928390503 "/>
   <polygon id="svg_158" fill="#4D4D4D" points="28.013118743896484,15.730854749679565 26.51613998413086,17.41685938835144 28.218135833740234,15.93785548210144 28.35213851928711,18.189854383468628 28.50912094116211,15.939854383468628 30.197139739990234,17.436863660812378 28.716121673583984,15.73485255241394 30.969112396240234,15.599858045578003 28.719112396240234,15.441853284835815 30.216121673583984,13.754856824874878 28.513118743896484,15.23485255241394 28.37911605834961,12.982853651046753 28.22213363647461,15.232853651046753 26.53512191772461,13.735859632492065 28.015132904052734,15.438862562179565 25.763118743896484,15.572849988937378 "/>
   <polygon id="svg_159" fill="#4D4D4D" points="38.625118255615234,38.578861951828 40.12112045288086,36.891850233078 38.419124603271484,38.37186121940613 38.28512191772461,36.11986231803894 38.127132415771484,38.36986231803894 36.43911361694336,36.87186121940613 37.919124603271484,38.57486414909363 35.66811752319336,38.70885157585144 37.91811752319336,38.86685633659363 36.422115325927734,40.553852796554565 38.12313461303711,39.0738570690155 38.257137298583984,41.32585597038269 38.41512680053711,39.07585597038269 40.10213851928711,40.57284998893738 38.622127532958984,38.86986231803894 40.875118255615234,38.73685145378113 "/>
  </g>
  <defs>
   <filter height="47.728" width="46.331" y="203.27" x="351.834" filterUnits="userSpaceOnUse" id="Adobe_OpacityMaskFilter_00000091717141212971338660000007958973269496405423_"/>
  </defs>
  <mask id="SVGID_00000113346841956596548800000000313429818759137927_" height="47.728" width="46.331" y="203.27" x="351.834" maskUnits="userSpaceOnUse">
   <g id="svg_160" filter="url(#Adobe_OpacityMaskFilter_00000091717141212971338660000007958973269496405423_)">
    <rect id="svg_161" fill="url(#SVGID_00000021825930914536764830000009676207676229123473_)" height="27.608" width="84.444" y="203.27" x="333.284"/>
   </g>
  </mask>
 </g>
</svg>