<svg width="60" height="60" xmlns="http://www.w3.org/2000/svg">
 <g>
  <title>background</title>
  <rect fill="none" id="canvas_background" height="62" width="62" y="-1" x="-1"/>
 </g>
 <g>
  <title>Layer 1</title>
  <rect x="0" y="0" stroke="null" id="svg_1" fill="#FFFFFF" height="90.000008" width="73.000006"/>
  <g stroke="null" id="svg_17">
   <path stroke="null" id="svg_18" fill="#4D4D4D" d="m44.332718,20.963682l-0.960955,0l0,-4.638313c0,-0.207728 -0.161817,-0.374284 -0.361601,-0.374284c-0.199785,0 -0.361601,0.167492 -0.361601,0.374284l0,4.638313l-0.960955,0l-0.723202,3.996416l4.092421,0l-0.724106,-3.996416z"/>
   <path stroke="null" id="svg_19" fill="#4D4D4D" d="m53.07081,20.963682l-0.960955,0l0,-4.638313c0,-0.207728 -0.161817,-0.374284 -0.361601,-0.374284c-0.199785,0 -0.361601,0.167492 -0.361601,0.374284l0,4.638313l-0.960955,0l-0.723202,3.996416l4.092421,0l-0.724106,-3.996416z"/>
   <path stroke="null" id="svg_20" fill="#4D4D4D" d="m54.158325,25.817207l-4.821951,0c-0.399569,0 -0.723202,0.334048 -0.723202,0.747632c0,0.414519 0.323633,0.749503 0.723202,0.749503l0.393241,0l0.696082,18.789049l0.592122,0c-0.074128,5.67695 -4.554366,10.274092 -10.056128,10.274092c-5.137448,0 -9.380837,-4.00858 -9.983807,-9.159661l1.509685,0c0.016272,0 0.032544,-0.005614 0.04972,-0.005614c0.555962,2.634023 2.824105,4.611177 5.531593,4.611177c3.076322,0 5.583122,-2.554487 5.65725,-5.719993l0.606586,0l0.696082,-18.789049l0.393241,0c0.399569,0 0.723202,-0.334048 0.723202,-0.749503c0,-0.412648 -0.323633,-0.747632 -0.723202,-0.747632l-4.822855,0c-0.399569,0 -0.723202,0.334048 -0.723202,0.747632c0,0.414519 0.323633,0.749503 0.723202,0.749503l0.393241,0l0.696082,18.789049l0.592122,0c-0.073224,2.341145 -1.931854,4.223793 -4.210845,4.223793c-2.047566,0 -3.757036,-1.517721 -4.137621,-3.523882c0.862419,-0.517447 1.450021,-1.472807 1.450021,-2.580687l0,-38.799199c0,-1.654335 -1.295436,-2.994271 -2.892809,-2.994271l-23.142473,0c-1.597373,0 -2.892809,1.340872 -2.892809,2.994271l0,38.799199c0,1.654335 1.295436,2.995206 2.892809,2.995206l20.171919,0c0.609298,5.98012 5.508993,10.656797 11.444676,10.656797c6.299996,0 11.4275,-5.268981 11.502532,-11.771227l0.606586,0l0.696082,-18.789049l0.392337,0c0.399569,0 0.723202,-0.334048 0.723202,-0.749503c-0.002712,-0.412648 -0.326345,-0.747632 -0.725914,-0.747632zm-22.84596,9.772551c-0.392337,-0.071114 -0.655402,-0.458498 -0.585794,-0.866467c0.068704,-0.407034 0.444769,-0.677454 0.837107,-0.60634c0.393241,0.072985 0.655402,0.460369 0.585794,0.868339c-0.069608,0.406098 -0.443865,0.676518 -0.837107,0.604468zm-1.769134,2.49928c0.198881,-0.358377 0.641842,-0.480019 0.986267,-0.274163c0.345329,0.207728 0.464657,0.664354 0.263969,1.022731c-0.198881,0.358377 -0.641842,0.480019 -0.987171,0.274163c-0.344425,-0.206792 -0.462849,-0.664354 -0.263065,-1.022731zm0.264873,-11.334251c0.346233,-0.20492 0.787386,-0.084214 0.988075,0.276034c0.198881,0.356505 0.080456,0.815003 -0.265777,1.020859c-0.343521,0.205856 -0.786482,0.08515 -0.986267,-0.274163c-0.200689,-0.357441 -0.080456,-0.815003 0.263969,-1.022731zm3.318594,15.793843c0.599354,0 1.084803,0.502476 1.084803,1.121916c0,0.332177 -0.141024,0.626925 -0.361601,0.832782l0,-0.832782c0,-0.412648 -0.323633,-0.747632 -0.723202,-0.747632c-0.399569,0 -0.723202,0.334048 -0.723202,0.747632l0,0.832782c-0.220577,-0.205856 -0.361601,-0.499669 -0.361601,-0.832782c0,-0.61944 0.48545,-1.121916 1.084803,-1.121916zm-0.976323,-11.665492c0.069608,0.407034 -0.193457,0.794417 -0.587602,0.866467c-0.391433,0.071114 -0.767498,-0.199306 -0.836203,-0.60634c-0.069608,-0.407969 0.193457,-0.795353 0.585794,-0.868339c0.393241,-0.069243 0.767498,0.201178 0.838011,0.608211zm-21.324523,-22.407438l20.180055,0l0,9.272882l-20.180055,0l0,-9.272882zm17.510535,16.468489c-0.254929,0.314398 -0.710546,0.356505 -1.017003,0.089828c-0.305553,-0.26387 -0.344425,-0.736403 -0.089496,-1.053609c0.257641,-0.314398 0.712354,-0.357441 1.019715,-0.090764c0.305553,0.264806 0.344425,0.736403 0.086784,1.054545zm-3.08717,-2.145582c-0.1356,0.385512 -0.549634,0.588561 -0.924795,0.444462c-0.375161,-0.138485 -0.567714,-0.569847 -0.433017,-0.957231c0.138312,-0.387384 0.551442,-0.58669 0.928411,-0.446333c0.374257,0.140356 0.56681,0.569847 0.429401,0.959102zm-3.610587,-0.923545c0,0.410777 -0.321825,0.747632 -0.722298,0.745761c-0.398665,0.001871 -0.722298,-0.334048 -0.723202,-0.746696c0.001808,-0.413584 0.324537,-0.746696 0.72501,-0.748568c0.398665,0.000936 0.722298,0.334984 0.72049,0.749503zm-4.130389,1.368943c-0.373353,0.142228 -0.78829,-0.060821 -0.925699,-0.448205c-0.134696,-0.388319 0.057856,-0.815003 0.433921,-0.958167c0.374257,-0.141292 0.789194,0.05895 0.924795,0.448205c0.136504,0.386448 -0.056048,0.81781 -0.433017,0.958167zm-2.995865,1.789077c-0.303745,0.266677 -0.759362,0.22457 -1.017907,-0.0917c-0.255833,-0.318141 -0.215153,-0.786932 0.091304,-1.054545c0.304649,-0.265742 0.760266,-0.222699 1.017003,0.095442c0.255833,0.314398 0.217865,0.786932 -0.0904,1.050802zm-3.992077,5.243717c0.391433,0.071114 0.656306,0.458498 0.58489,0.866467c-0.0678,0.407969 -0.443865,0.676518 -0.837107,0.60634c-0.393241,-0.072985 -0.654498,-0.459433 -0.58489,-0.869274c0.068704,-0.406098 0.443865,-0.676518 0.837107,-0.603533zm-0.837107,4.703812c-0.070512,-0.406098 0.193457,-0.793482 0.586698,-0.862724c0.391433,-0.07205 0.768402,0.19837 0.835299,0.604468c0.070512,0.407969 -0.193457,0.793482 -0.585794,0.866467c-0.393241,0.072985 -0.766594,-0.19837 -0.836203,-0.608211zm2.341367,4.130222c-0.346233,0.205856 -0.786482,0.082342 -0.987171,-0.27697c-0.199785,-0.357441 -0.080456,-0.814067 0.265777,-1.018988c0.344425,-0.206792 0.78829,-0.08515 0.986267,0.273227c0.200689,0.359312 0.079552,0.815003 -0.264873,1.022731zm0.263969,-11.333315c-0.197977,0.359312 -0.640034,0.479083 -0.986267,0.274163c-0.345329,-0.207728 -0.462849,-0.664354 -0.262161,-1.023666c0.198881,-0.358377 0.640034,-0.480019 0.986267,-0.271356c0.343521,0.205856 0.464657,0.663418 0.262161,1.020859zm2.313343,14.107694c-0.257641,0.31627 -0.71145,0.356505 -1.018811,0.0917c-0.304649,-0.264806 -0.343521,-0.737339 -0.086784,-1.052673c0.255833,-0.31627 0.712354,-0.358377 1.017003,-0.093571c0.306457,0.266677 0.343521,0.738275 0.088592,1.054545zm3.339386,1.696442c-0.137408,0.388319 -0.550538,0.58669 -0.926603,0.446333c-0.374257,-0.140356 -0.567714,-0.571719 -0.430305,-0.959102c0.136504,-0.387384 0.551442,-0.588561 0.924795,-0.446333c0.375161,0.140356 0.56681,0.571719 0.432113,0.959102zm2.975073,1.158409c-0.398665,0 -0.722298,-0.334984 -0.722298,-0.748568s0.323633,-0.748568 0.722298,-0.748568c0.398665,0 0.722298,0.334984 0.722298,0.748568s-0.323633,0.748568 -0.722298,0.748568zm3.900772,-0.713011c-0.375161,0.142228 -0.790098,-0.05895 -0.925699,-0.447269c-0.136504,-0.387384 0.056952,-0.816874 0.433017,-0.957231c0.374257,-0.140356 0.789194,0.05895 0.925699,0.448205c0.1356,0.386448 -0.057856,0.815939 -0.433017,0.956295zm3.430691,-2.049204c-0.304649,0.265742 -0.760266,0.223635 -1.017907,-0.092635c-0.256737,-0.31627 -0.216961,-0.787868 0.089496,-1.054545c0.304649,-0.264806 0.76117,-0.222699 1.017907,0.093571c0.255833,0.31627 0.216961,0.787868 -0.089496,1.053609zm-7.331463,-0.934774c-4.327462,0 -7.834993,-3.630553 -7.834993,-8.10886c0,-3.547275 2.203055,-6.55371 5.266721,-7.655976l0,-0.769153c0,-0.826232 0.64817,-1.498071 1.446405,-1.498071l2.245543,0c0.797331,0 1.446405,0.67184 1.446405,1.498071l0,0.769153c3.063666,1.102266 5.265817,4.108701 5.265817,7.655976c-0.000904,4.478306 -3.509339,8.10886 -7.835897,8.10886zm9.257893,1.880776c-0.399569,0 -0.723202,0.334048 -0.723202,0.747632l0,0.832782c-0.220577,-0.205856 -0.361601,-0.500605 -0.361601,-0.832782c0,-0.61944 0.486354,-1.121916 1.084803,-1.121916s1.084803,0.502476 1.084803,1.121916c0,0.332177 -0.141024,0.626925 -0.361601,0.832782l0,-0.832782c0,-0.413584 -0.323633,-0.747632 -0.723202,-0.747632z"/>
   <rect stroke="null" id="svg_21" fill="#4D4D4D" height="0.749503" width="0.723202" y="15.575866" x="20.762652"/>
   <path stroke="null" id="svg_22" fill="#4D4D4D" d="m19.99425,10.387356c-0.009944,-0.037428 0.025312,-0.073921 -0.000904,-0.107607c-0.028024,-0.034621 -0.055144,-0.067371 -0.079552,-0.09825c-0.047912,-0.060821 -0.098536,-0.115092 -0.139216,-0.159071c-0.083168,-0.088892 -0.141024,-0.138485 -0.141024,-0.138485s-0.048816,-0.057078 -0.133792,-0.142228c-0.042488,-0.041171 -0.094016,-0.092635 -0.15368,-0.142228c-0.029832,-0.025264 -0.061472,-0.053335 -0.094016,-0.082342c-0.033448,-0.034621 -0.068704,0.005614 -0.105768,-0.007486c-0.291993,0 -0.681618,0 -1.072147,0c-0.390529,0 -0.780154,0 -1.073051,0c-0.03616,0.011229 -0.071416,-0.025264 -0.104864,0.001871c-0.033448,0.029007 -0.065088,0.057078 -0.09492,0.083278c-0.05876,0.050528 -0.111192,0.101057 -0.15368,0.143164c-0.084976,0.087021 -0.133792,0.145971 -0.133792,0.145971s-0.055144,0.050528 -0.136504,0.138485c-0.039776,0.043978 -0.0904,0.09825 -0.138312,0.159071c-0.025312,0.030878 -0.051528,0.063628 -0.079552,0.09825c-0.033448,0.033686 0.005424,0.070178 -0.006328,0.107607c0,0.302234 0,0.707396 0,1.110687c0,0.403291 0,0.807517 0,1.109752c0.009944,0.037428 -0.025312,0.073921 0.000904,0.107607c0.028024,0.034621 0.055144,0.067371 0.080456,0.09825c0.047912,0.060821 0.098536,0.115092 0.139216,0.159071c0.083168,0.088892 0.14012,0.138485 0.14012,0.138485s0.057856,-0.050528 0.141024,-0.138485c0.04068,-0.043978 0.091304,-0.097314 0.139216,-0.159071c0.025312,-0.030878 0.051528,-0.063628 0.079552,-0.09825c0.026216,-0.033686 -0.00904,-0.070178 0.001808,-0.107607c0,-0.302234 0,-0.707396 0,-1.109752c0,-0.403291 0,-0.807517 0,-1.110687c-0.011752,-0.037428 0.026216,-0.073921 -0.006328,-0.107607c-0.028024,-0.034621 -0.055144,-0.067371 -0.079552,-0.09825c-0.033448,-0.043043 -0.065088,-0.076728 -0.096728,-0.111349c0.034352,0.03275 0.066896,0.067371 0.109384,0.101992c0.029832,0.027136 0.061472,0.055207 0.09492,0.084214c0.033448,0.027136 0.068704,-0.009357 0.104864,0.001871c0.292897,0 0.682522,0 1.073051,0c0.390529,0 0.780154,0 1.072147,0c0.037064,-0.0131 0.07232,0.027136 0.105768,-0.007486c0.033448,-0.029007 0.064184,-0.057078 0.094016,-0.082342c0.04068,-0.034621 0.07232,-0.0655 0.105768,-0.09825c-0.032544,0.034621 -0.064184,0.068307 -0.097632,0.111349c-0.025312,0.030878 -0.052432,0.063628 -0.080456,0.09825c-0.026216,0.033686 0.00904,0.070178 -0.000904,0.107607c0,0.302234 0,0.707396 0,1.110687c0,0.403291 0,0.807517 0,1.109752c0.011752,0.037428 -0.02712,0.073921 0.006328,0.107607c0.028024,0.034621 0.055144,0.067371 0.080456,0.09825c0.047912,0.060821 0.097632,0.115092 0.138312,0.159071c0.08136,0.088892 0.136504,0.138485 0.136504,0.138485s0.055144,-0.050528 0.136504,-0.138485c0.039776,-0.043978 0.0904,-0.097314 0.138312,-0.159071c0.025312,-0.030878 0.052432,-0.063628 0.080456,-0.09825c0.033448,-0.033686 -0.005424,-0.070178 0.006328,-0.107607c0,-0.302234 0,-0.707396 0,-1.109752c-0.002712,-0.403291 -0.002712,-0.808453 -0.002712,-1.110687z"/>
   <path stroke="null" id="svg_23" fill="#4D4D4D" d="m25.05757,13.410634c-0.025312,0.030878 -0.052432,0.063628 -0.080456,0.09825c-0.026216,0.034621 0.00904,0.071114 -0.001808,0.107607c0,0.30317 0,0.707396 0,1.111623c0,0.403291 0,0.807517 0,1.109752c0.011752,0.038364 -0.02712,0.074857 0.006328,0.108542c0.028024,0.033686 0.055144,0.066435 0.079552,0.097314c0.033448,0.043978 0.065088,0.076728 0.096728,0.111349c-0.033448,-0.03275 -0.066896,-0.067371 -0.109384,-0.101992c-0.029832,-0.0262 -0.061472,-0.055207 -0.09492,-0.084214c-0.033448,-0.0262 -0.068704,0.010293 -0.104864,-0.000936c-0.292897,0 -0.682522,0 -1.073051,0c-0.390529,0 -0.780154,0 -1.072147,0c-0.03616,0.012164 -0.071416,-0.028071 -0.104864,0.00655c-0.033448,0.029007 -0.064184,0.056143 -0.09492,0.082342c-0.04068,0.034621 -0.07232,0.0655 -0.105768,0.09825c0.032544,-0.034621 0.064184,-0.067371 0.097632,-0.111349c0.025312,-0.030878 0.052432,-0.063628 0.080456,-0.097314c0.026216,-0.033686 -0.00904,-0.070178 0.000904,-0.108542c0,-0.301298 0,-0.706461 0,-1.109752c0,-0.404227 0,-0.807517 0,-1.111623c-0.011752,-0.036493 0.02712,-0.072985 -0.006328,-0.107607c-0.028024,-0.034621 -0.055144,-0.067371 -0.079552,-0.09825c-0.047912,-0.059885 -0.098536,-0.115092 -0.138312,-0.159071c-0.08136,-0.087957 -0.136504,-0.138485 -0.136504,-0.138485s-0.055144,0.051464 -0.136504,0.138485c-0.04068,0.043978 -0.0904,0.09825 -0.138312,0.159071c-0.025312,0.030878 -0.051528,0.063628 -0.079552,0.09825c-0.033448,0.034621 0.005424,0.071114 -0.006328,0.107607c0,0.30317 0,0.707396 0,1.111623c0,0.403291 0,0.807517 0,1.109752c0.010848,0.038364 -0.024408,0.074857 0.001808,0.108542c0.028024,0.033686 0.055144,0.066435 0.079552,0.097314c0.047912,0.061757 0.098536,0.115092 0.139216,0.159071c0.083168,0.089828 0.141024,0.138485 0.141024,0.138485s0.048816,0.058014 0.133792,0.142228c0.042488,0.042107 0.094016,0.093571 0.15368,0.142228c0.029832,0.025264 0.061472,0.054271 0.09492,0.083278c0.033448,0.033686 0.068704,-0.00655 0.104864,0.00655c0.292897,0 0.682522,0 1.072147,0c0.390529,0 0.780154,0 1.073051,0c0.037064,-0.011229 0.071416,0.025264 0.104864,-0.001871c0.033448,-0.029007 0.064184,-0.057078 0.09492,-0.082342c0.059664,-0.050528 0.111192,-0.101992 0.15368,-0.144099c0.08588,-0.086085 0.133792,-0.145971 0.133792,-0.145971s0.055144,-0.049593 0.136504,-0.138485c0.039776,-0.043978 0.0904,-0.096378 0.138312,-0.159071c0.025312,-0.030878 0.051528,-0.063628 0.079552,-0.097314c0.033448,-0.033686 -0.005424,-0.070178 0.006328,-0.108542c0,-0.301298 0,-0.706461 0,-1.109752c0,-0.404227 0,-0.807517 0,-1.111623c-0.010848,-0.036493 0.024408,-0.072985 -0.001808,-0.107607c-0.028024,-0.034621 -0.055144,-0.067371 -0.079552,-0.09825c-0.047912,-0.059885 -0.098536,-0.115092 -0.139216,-0.159071c-0.083168,-0.087957 -0.141024,-0.138485 -0.141024,-0.138485s-0.056952,0.051464 -0.14012,0.138485c-0.039776,0.043978 -0.0904,0.09825 -0.138312,0.159071z"/>
   <path stroke="null" id="svg_24" fill="#4D4D4D" d="m19.353312,13.410634c-0.025312,0.030878 -0.052432,0.063628 -0.080456,0.09825c-0.026216,0.034621 0.00904,0.071114 -0.000904,0.107607c0,0.30317 0,0.707396 0,1.111623c0,0.403291 0,0.807517 0,1.109752c0.011752,0.038364 -0.02712,0.074857 0.006328,0.108542c0.028024,0.033686 0.055144,0.066435 0.080456,0.097314c0.033448,0.043978 0.065088,0.076728 0.096728,0.111349c-0.034352,-0.03275 -0.066896,-0.067371 -0.109384,-0.101992c-0.029832,-0.0262 -0.061472,-0.055207 -0.094016,-0.084214c-0.033448,-0.0262 -0.068704,0.010293 -0.105768,-0.000936c-0.291993,0 -0.681618,0 -1.072147,0c-0.390529,0 -0.780154,0 -1.073051,0c-0.03616,0.012164 -0.071416,-0.028071 -0.104864,0.00655c-0.033448,0.029007 -0.065088,0.056143 -0.09492,0.082342c-0.04068,0.034621 -0.07232,0.0655 -0.104864,0.09825c0.032544,-0.034621 0.064184,-0.067371 0.097632,-0.111349c0.025312,-0.030878 0.051528,-0.063628 0.079552,-0.097314c0.026216,-0.033686 -0.00904,-0.070178 0.001808,-0.108542c0,-0.301298 0,-0.706461 0,-1.109752c0,-0.404227 0,-0.807517 0,-1.111623c-0.011752,-0.036493 0.026216,-0.072985 -0.006328,-0.107607c-0.028024,-0.034621 -0.055144,-0.067371 -0.079552,-0.09825c-0.047912,-0.059885 -0.098536,-0.115092 -0.138312,-0.159071c-0.082264,-0.087957 -0.136504,-0.138485 -0.136504,-0.138485s-0.055144,0.051464 -0.136504,0.138485c-0.039776,0.043978 -0.0904,0.09825 -0.138312,0.159071c-0.025312,0.030878 -0.051528,0.063628 -0.079552,0.09825c-0.033448,0.034621 0.005424,0.071114 -0.006328,0.107607c0,0.30317 0,0.707396 0,1.111623c0,0.403291 0,0.807517 0,1.109752c0.009944,0.038364 -0.025312,0.074857 0.000904,0.108542c0.028024,0.033686 0.055144,0.066435 0.080456,0.097314c0.047912,0.061757 0.098536,0.115092 0.139216,0.159071c0.083168,0.089828 0.14012,0.138485 0.14012,0.138485s0.048816,0.058014 0.133792,0.142228c0.042488,0.042107 0.09492,0.093571 0.15368,0.142228c0.029832,0.025264 0.061472,0.054271 0.09492,0.083278c0.033448,0.033686 0.068704,-0.00655 0.104864,0.00655c0.292897,0 0.682522,0 1.073051,0c0.390529,0 0.780154,0 1.072147,0c0.037064,-0.011229 0.07232,0.025264 0.105768,-0.001871c0.033448,-0.029007 0.064184,-0.057078 0.094016,-0.082342c0.059664,-0.050528 0.111192,-0.101992 0.15368,-0.144099c0.08588,-0.086085 0.133792,-0.145971 0.133792,-0.145971s0.055144,-0.049593 0.136504,-0.138485c0.039776,-0.043978 0.0904,-0.096378 0.138312,-0.159071c0.025312,-0.030878 0.052432,-0.063628 0.080456,-0.097314c0.033448,-0.033686 -0.005424,-0.070178 0.006328,-0.108542c0,-0.301298 0,-0.706461 0,-1.109752c0,-0.404227 0,-0.807517 0,-1.111623c-0.009944,-0.036493 0.025312,-0.072985 -0.000904,-0.107607c-0.028024,-0.034621 -0.055144,-0.067371 -0.079552,-0.09825c-0.047912,-0.059885 -0.098536,-0.115092 -0.139216,-0.159071c-0.083168,-0.087957 -0.141024,-0.138485 -0.141024,-0.138485s-0.056952,0.051464 -0.14012,0.138485c-0.043392,0.043978 -0.094016,0.09825 -0.141928,0.159071z"/>
   <path stroke="null" id="svg_25" fill="#4D4D4D" d="m25.699412,10.387356c-0.010848,-0.037428 0.024408,-0.073921 -0.001808,-0.107607c-0.028024,-0.034621 -0.055144,-0.067371 -0.079552,-0.09825c-0.047912,-0.060821 -0.098536,-0.115092 -0.139216,-0.159071c-0.083168,-0.088892 -0.141024,-0.138485 -0.141024,-0.138485s-0.048816,-0.057078 -0.133792,-0.142228c-0.042488,-0.041171 -0.094016,-0.092635 -0.15368,-0.142228c-0.029832,-0.025264 -0.061472,-0.053335 -0.09492,-0.082342c-0.033448,-0.034621 -0.068704,0.005614 -0.104864,-0.007486c-0.292897,0 -0.682522,0 -1.073051,0c-0.390529,0 -0.780154,0 -1.072147,0c-0.03616,0.011229 -0.071416,-0.025264 -0.104864,0.001871c-0.033448,0.029007 -0.064184,0.057078 -0.09492,0.083278c-0.059664,0.050528 -0.111192,0.101057 -0.15368,0.143164c-0.08588,0.087021 -0.133792,0.145971 -0.133792,0.145971s-0.055144,0.050528 -0.136504,0.138485c-0.04068,0.043978 -0.0904,0.09825 -0.138312,0.159071c-0.025312,0.030878 -0.051528,0.063628 -0.079552,0.09825c-0.033448,0.033686 0.005424,0.070178 -0.006328,0.107607c0,0.302234 0,0.707396 0,1.110687c0,0.403291 0,0.807517 0,1.109752c0.010848,0.037428 -0.024408,0.073921 0.001808,0.107607c0.028024,0.034621 0.055144,0.067371 0.079552,0.09825c0.047912,0.060821 0.098536,0.115092 0.139216,0.159071c0.083168,0.088892 0.141024,0.138485 0.141024,0.138485s0.056952,-0.050528 0.14012,-0.138485c0.04068,-0.043978 0.091304,-0.097314 0.139216,-0.159071c0.025312,-0.030878 0.052432,-0.063628 0.080456,-0.09825c0.026216,-0.033686 -0.00904,-0.070178 0.000904,-0.107607c0,-0.302234 0,-0.707396 0,-1.109752c0,-0.403291 0,-0.807517 0,-1.110687c-0.011752,-0.037428 0.02712,-0.073921 -0.006328,-0.107607c-0.028024,-0.034621 -0.055144,-0.067371 -0.079552,-0.09825c-0.033448,-0.043043 -0.065088,-0.076728 -0.096728,-0.111349c0.033448,0.03275 0.066896,0.067371 0.109384,0.101992c0.029832,0.027136 0.061472,0.055207 0.09492,0.084214c0.033448,0.027136 0.068704,-0.009357 0.104864,0.001871c0.292897,0 0.682522,0 1.072147,0c0.390529,0 0.780154,0 1.073051,0c0.037064,-0.0131 0.071416,0.027136 0.104864,-0.007486c0.033448,-0.029007 0.064184,-0.057078 0.09492,-0.082342c0.04068,-0.034621 0.07232,-0.0655 0.105768,-0.09825c-0.032544,0.034621 -0.064184,0.068307 -0.097632,0.111349c-0.025312,0.030878 -0.052432,0.063628 -0.080456,0.09825c-0.026216,0.033686 0.00904,0.070178 -0.001808,0.107607c0,0.302234 0,0.707396 0,1.110687c0,0.403291 0,0.807517 0,1.109752c0.011752,0.037428 -0.02712,0.073921 0.006328,0.107607c0.028024,0.034621 0.055144,0.067371 0.079552,0.09825c0.047912,0.060821 0.098536,0.115092 0.138312,0.159071c0.08136,0.088892 0.136504,0.138485 0.136504,0.138485s0.055144,-0.050528 0.136504,-0.138485c0.039776,-0.043978 0.0904,-0.097314 0.138312,-0.159071c0.025312,-0.030878 0.051528,-0.063628 0.079552,-0.09825c0.033448,-0.033686 -0.005424,-0.070178 0.006328,-0.107607c0,-0.302234 0,-0.707396 0,-1.109752c0.000904,-0.403291 0.000904,-0.808453 0.000904,-1.110687z"/>
   <path stroke="null" id="svg_26" fill="#4D4D4D" d="m22.039104,23.759582l-0.76117,0l0,3.929045l-0.723202,0l0,-3.929045l-0.760266,0c-0.399569,0 -0.723202,0.334048 -0.723202,0.749503l0,9.011819c0,0.412648 0.323633,0.748568 0.723202,0.748568l2.245543,0c0.398665,0 0.723202,-0.334984 0.723202,-0.748568l0,-9.011819c-0.000904,-0.414519 -0.325441,-0.749503 -0.724106,-0.749503z"/>
   <path stroke="null" id="svg_27" fill="#4D4D4D" d="m29.366047,13.410634c-0.025312,0.030878 -0.052432,0.063628 -0.080456,0.09825c-0.026216,0.034621 0.00904,0.071114 -0.001808,0.107607c0,0.30317 0,0.707396 0,1.111623c0,0.403291 0,0.807517 0,1.109752c0.011752,0.038364 -0.02712,0.074857 0.006328,0.108542c0.028024,0.033686 0.055144,0.066435 0.080456,0.097314c0.033448,0.043978 0.065088,0.076728 0.096728,0.111349c-0.034352,-0.03275 -0.066896,-0.067371 -0.109384,-0.101992c-0.029832,-0.0262 -0.061472,-0.055207 -0.094016,-0.084214c-0.033448,-0.0262 -0.068704,0.010293 -0.105768,-0.000936c-0.291993,0 -0.681618,0 -1.072147,0c-0.390529,0 -0.780154,0 -1.072147,0c-0.03616,0.012164 -0.071416,-0.028071 -0.104864,0.00655c-0.033448,0.029007 -0.065088,0.056143 -0.09492,0.082342c-0.04068,0.034621 -0.07232,0.0655 -0.104864,0.09825c0.032544,-0.034621 0.064184,-0.067371 0.097632,-0.111349c0.024408,-0.030878 0.051528,-0.063628 0.079552,-0.097314c0.026216,-0.033686 -0.00904,-0.070178 0.000904,-0.108542c0,-0.301298 0,-0.706461 0,-1.109752c0,-0.404227 0,-0.807517 0,-1.111623c-0.011752,-0.036493 0.02712,-0.072985 -0.006328,-0.107607c-0.028024,-0.034621 -0.055144,-0.067371 -0.080456,-0.09825c-0.047912,-0.059885 -0.097632,-0.115092 -0.138312,-0.159071c-0.082264,-0.087957 -0.136504,-0.138485 -0.136504,-0.138485s-0.055144,0.051464 -0.136504,0.138485c-0.04068,0.043978 -0.0904,0.09825 -0.138312,0.159071c-0.025312,0.030878 -0.052432,0.063628 -0.080456,0.09825c-0.033448,0.034621 0.005424,0.071114 -0.006328,0.107607c0,0.30317 0,0.707396 0,1.111623c0,0.403291 0,0.807517 0,1.109752c0.009944,0.038364 -0.025312,0.074857 0.000904,0.108542c0.028024,0.033686 0.055144,0.066435 0.080456,0.097314c0.047912,0.061757 0.098536,0.115092 0.139216,0.159071c0.083168,0.089828 0.14012,0.138485 0.14012,0.138485s0.048816,0.058014 0.133792,0.142228c0.042488,0.042107 0.094016,0.093571 0.15368,0.142228c0.029832,0.025264 0.061472,0.054271 0.09492,0.083278c0.033448,0.033686 0.068704,-0.00655 0.104864,0.00655c0.291993,0 0.682522,0 1.072147,0c0.390529,0 0.780154,0 1.072147,0c0.037064,-0.011229 0.07232,0.025264 0.105768,-0.001871c0.033448,-0.029007 0.064184,-0.057078 0.094016,-0.082342c0.059664,-0.050528 0.111192,-0.101992 0.15368,-0.144099c0.08588,-0.086085 0.133792,-0.145971 0.133792,-0.145971s0.055144,-0.049593 0.136504,-0.138485c0.039776,-0.043978 0.0904,-0.096378 0.138312,-0.159071c0.025312,-0.030878 0.052432,-0.063628 0.080456,-0.097314c0.033448,-0.033686 -0.005424,-0.070178 0.006328,-0.108542c0,-0.301298 0,-0.706461 0,-1.109752c0,-0.404227 0,-0.807517 0,-1.111623c-0.009944,-0.036493 0.025312,-0.072985 -0.000904,-0.107607c-0.028024,-0.034621 -0.055144,-0.067371 -0.080456,-0.09825c-0.047912,-0.059885 -0.098536,-0.115092 -0.139216,-0.159071c-0.083168,-0.087957 -0.14012,-0.138485 -0.14012,-0.138485s-0.056952,0.051464 -0.14012,0.138485c-0.039776,0.043978 -0.0904,0.09825 -0.138312,0.159071z"/>
   <path stroke="null" id="svg_28" fill="#4D4D4D" d="m30.007889,10.387356c-0.009944,-0.037428 0.025312,-0.073921 -0.000904,-0.107607c-0.028024,-0.034621 -0.055144,-0.067371 -0.080456,-0.09825c-0.047912,-0.060821 -0.098536,-0.115092 -0.139216,-0.159071c-0.083168,-0.088892 -0.14012,-0.138485 -0.14012,-0.138485s-0.048816,-0.057078 -0.133792,-0.142228c-0.042488,-0.041171 -0.09492,-0.092635 -0.15368,-0.142228c-0.029832,-0.025264 -0.061472,-0.053335 -0.094016,-0.082342c-0.033448,-0.034621 -0.068704,0.005614 -0.105768,-0.007486c-0.291993,0 -0.681618,0 -1.072147,0c-0.390529,0 -0.780154,0 -1.072147,0c-0.03616,0.011229 -0.071416,-0.025264 -0.104864,0.001871c-0.033448,0.029007 -0.065088,0.057078 -0.09492,0.083278c-0.05876,0.050528 -0.111192,0.101057 -0.15368,0.143164c-0.084976,0.087021 -0.133792,0.145971 -0.133792,0.145971s-0.055144,0.050528 -0.136504,0.138485c-0.04068,0.043978 -0.0904,0.09825 -0.138312,0.159071c-0.025312,0.030878 -0.052432,0.063628 -0.080456,0.09825c-0.033448,0.033686 0.005424,0.070178 -0.006328,0.107607c0,0.302234 0,0.707396 0,1.110687c0,0.403291 0,0.807517 0,1.109752c0.009944,0.037428 -0.025312,0.073921 0.000904,0.107607c0.028024,0.034621 0.055144,0.067371 0.080456,0.09825c0.047912,0.060821 0.098536,0.115092 0.139216,0.159071c0.083168,0.088892 0.14012,0.138485 0.14012,0.138485s0.056952,-0.050528 0.141024,-0.138485c0.04068,-0.043978 0.091304,-0.097314 0.139216,-0.159071c0.024408,-0.030878 0.051528,-0.063628 0.079552,-0.09825c0.026216,-0.033686 -0.00904,-0.070178 0.000904,-0.107607c0,-0.302234 0,-0.707396 0,-1.109752c0,-0.403291 0,-0.807517 0,-1.110687c-0.011752,-0.037428 0.02712,-0.073921 -0.006328,-0.107607c-0.028024,-0.034621 -0.055144,-0.067371 -0.080456,-0.09825c-0.033448,-0.043043 -0.065088,-0.076728 -0.096728,-0.111349c0.034352,0.03275 0.066896,0.067371 0.109384,0.101992c0.029832,0.027136 0.061472,0.055207 0.09492,0.084214c0.033448,0.027136 0.068704,-0.009357 0.104864,0.001871c0.291993,0 0.682522,0 1.072147,0c0.390529,0 0.780154,0 1.072147,0c0.037064,-0.0131 0.07232,0.027136 0.105768,-0.007486c0.033448,-0.029007 0.064184,-0.057078 0.094016,-0.082342c0.04068,-0.034621 0.07232,-0.0655 0.104864,-0.09825c-0.03164,0.034621 -0.06328,0.068307 -0.096728,0.111349c-0.025312,0.030878 -0.052432,0.063628 -0.080456,0.09825c-0.026216,0.033686 0.00904,0.070178 -0.001808,0.107607c0,0.302234 0,0.707396 0,1.110687c0,0.403291 0,0.807517 0,1.109752c0.011752,0.037428 -0.02712,0.073921 0.006328,0.107607c0.028024,0.034621 0.055144,0.067371 0.080456,0.09825c0.047912,0.060821 0.097632,0.115092 0.138312,0.159071c0.082264,0.088892 0.136504,0.138485 0.136504,0.138485s0.055144,-0.050528 0.136504,-0.138485c0.039776,-0.043978 0.0904,-0.097314 0.138312,-0.159071c0.025312,-0.030878 0.052432,-0.063628 0.080456,-0.09825c0.033448,-0.033686 -0.005424,-0.070178 0.006328,-0.107607c0,-0.302234 0,-0.707396 0,-1.109752c0.000904,-0.403291 0.000904,-0.808453 0.000904,-1.110687z"/>
  </g>
  <defs>
   <filter height="59.256" width="53.572" y="304.826" x="148.214" filterUnits="userSpaceOnUse" id="Adobe_OpacityMaskFilter_00000158002107485453599990000017540080424650957229_"/>
  </defs>
  <mask id="SVGID_00000164473106721680314820000000861328103444438199_" height="59.256" width="53.572" y="304.826" x="148.214" maskUnits="userSpaceOnUse">
   <g id="svg_29" filter="url(#Adobe_OpacityMaskFilter_00000158002107485453599990000017540080424650957229_)">
    <rect id="svg_30" fill="url(#SVGID_00000174572188191616002000000009282377143786760361_)" height="27.608" width="84.444" y="304.827" x="133.577"/>
   </g>
  </mask>
 </g>
</svg>