<svg width="60" height="60" xmlns="http://www.w3.org/2000/svg">
 <g>
  <title>background</title>
  <rect fill="none" id="canvas_background" height="62" width="62" y="-1" x="-1"/>
 </g>
 <g>
  <title>Layer 1</title>
  <rect x="0" y="0" stroke="null" id="svg_1" fill="#FFFFFF" height="73.000006" width="69.000008"/>
  <g id="svg_3">
   <path id="svg_4" fill="#4D4D4D" d="m14.231933,2.495427c-2.545,0 -4.607,0.617 -4.609,1.379l0,16.961l1.236,7.226c-0.555,0.145 -0.969,0.646 -0.969,1.246l0,0.699c0,0.714 0.58,1.292 1.293,1.292l1.356,0l0,17.571l-0.636,2.661c-0.013,0.051 -0.014,0.104 -0.006,0.156l0.647,4.061c0.031,0.194 0.198,0.337 0.395,0.337l2.586,0c0.197,0 0.363,-0.142 0.395,-0.338l0.646,-4.062c0.008,-0.052 0.006,-0.104 -0.006,-0.155l-0.635,-2.661l0,-17.57l1.356,0c0.714,0 1.293,-0.578 1.293,-1.292l0,-0.699c0,-0.602 -0.413,-1.102 -0.97,-1.246l1.236,-7.226l0,-16.961c0.001,-0.761 -2.063,-1.379 -4.608,-1.379zm-1.736,15.401c0,0.357 -0.289,0.647 -0.648,0.647c-0.356,0 -0.646,-0.289 -0.646,-0.647l0,-11.678c0,-0.357 0.289,-0.646 0.646,-0.646c0.358,0 0.648,0.289 0.648,0.646l0,11.678zm1.089,-11.678c0,-0.357 0.289,-0.646 0.647,-0.646c0.357,0 0.646,0.289 0.646,0.646l0,11.678c0,0.357 -0.289,0.647 -0.646,0.647c-0.357,0 -0.647,-0.289 -0.647,-0.647l0,-11.678zm1.598,49.066l-1.902,0l-0.58,-3.646l0.628,-2.63c0.007,-0.03 0.011,-0.061 0.011,-0.093l0,-17.617l1.785,0l0,17.618c0,0.031 0.004,0.063 0.012,0.093l0.627,2.63l-0.581,3.645zm2.078,-37.388c0,0.357 -0.289,0.647 -0.647,0.647c-0.356,0 -0.645,-0.289 -0.645,-0.647l0,-11.678c0,-0.357 0.289,-0.646 0.645,-0.646c0.358,0 0.647,0.289 0.647,0.646l0,11.678z"/>
   <path id="svg_5" fill="#4D4D4D" d="m52.007933,45.326427c-0.257,-2.867 -1.058,-5.542 -2.133,-7.997c-1.067,-2.467 -2.415,-4.732 -3.897,-6.865c-0.743,-1.066 -1.527,-2.096 -2.348,-3.094c-0.127,-0.156 -0.264,-0.307 -0.395,-0.462l0.701,-0.034c0.693,-0.035 1.266,-0.592 1.299,-1.299c0.031,-0.645 -0.392,-1.203 -0.985,-1.375l0.702,-5.791c0.006,-0.047 0.004,-0.096 -0.008,-0.143l-2.865,-11.769c-0.043,-0.18 -0.203,-0.307 -0.388,-0.307l-5.371,0c-0.185,0 -0.345,0.127 -0.388,0.307l-2.865,11.769c-0.012,0.047 -0.014,0.096 -0.008,0.143l0.703,5.793c-0.545,0.16 -0.959,0.645 -0.986,1.242c-0.037,0.754 0.545,1.395 1.299,1.43l0.701,0.034c-0.131,0.155 -0.268,0.306 -0.395,0.462c-0.82,0.998 -1.604,2.027 -2.348,3.094c-1.483,2.133 -2.83,4.398 -3.897,6.865c-1.075,2.455 -1.876,5.13 -2.133,7.997c-0.046,0.718 -0.102,1.442 -0.063,2.177c0.004,0.734 0.091,1.473 0.18,2.213c0.138,0.744 0.242,1.45 0.501,2.268c0.246,0.885 0.451,1.35 0.666,1.96c0.04,0.11 0.092,0.237 0.145,0.345c0.78,1.59 2.7,2.248 4.29,1.468c1.592,-0.78 2.248,-2.7 1.469,-4.29l-0.023,-0.047c-0.263,-0.538 -0.607,-1.194 -0.708,-1.508c-0.173,-0.352 -0.311,-0.87 -0.46,-1.336c-0.109,-0.488 -0.234,-0.977 -0.29,-1.488c-0.091,-0.503 -0.103,-1.027 -0.132,-1.551c-0.051,-2.111 0.322,-4.34 1.012,-6.533c0.674,-2.197 1.648,-4.363 2.785,-6.458c0.57,-1.047 1.188,-2.075 1.844,-3.081c0.326,-0.506 0.668,-0.998 1.014,-1.489c0.25,-0.353 0.514,-0.707 0.773,-1.044c0.258,0.337 0.522,0.691 0.772,1.044c0.346,0.491 0.688,0.983 1.014,1.489c0.656,1.006 1.273,2.034 1.844,3.081c1.137,2.095 2.111,4.261 2.785,6.458c0.689,2.193 1.063,4.422 1.012,6.533c-0.029,0.523 -0.041,1.048 -0.132,1.551c-0.056,0.512 -0.181,1 -0.29,1.488c-0.148,0.466 -0.287,0.984 -0.46,1.336c-0.101,0.314 -0.445,0.97 -0.708,1.508l-0.031,0.063c-0.051,0.105 -0.097,0.216 -0.137,0.329c-0.589,1.671 0.287,3.501 1.958,4.091c1.671,0.589 3.501,-0.287 4.091,-1.958c0.215,-0.61 0.42,-1.075 0.666,-1.96c0.259,-0.817 0.363,-1.523 0.501,-2.268c0.089,-0.74 0.176,-1.479 0.18,-2.213c0.039,-0.735 -0.017,-1.46 -0.063,-2.178zm-13.402,-21.462l-4.078,0l-0.665,-5.479l2.772,-11.395l2.194,0l-0.837,0.938c-0.135,0.151 -0.135,0.381 0,0.533l1.195,1.338l-1.195,1.338c-0.135,0.152 -0.135,0.381 0,0.533l1.195,1.34l-1.195,1.342c-0.135,0.152 -0.135,0.38 0,0.531l0.728,0.817c-1.25,0.145 -2.228,1.198 -2.228,2.485c0,1.25 0.919,2.281 2.114,2.475l0,3.204zm0.399,-3.962c-0.945,0 -1.713,-0.77 -1.713,-1.715c0,-0.945 0.768,-1.715 1.713,-1.715c0.945,0 1.715,0.77 1.715,1.715c0,0.945 -0.769,1.715 -1.715,1.715zm0.401,3.962l0,-3.203c1.196,-0.193 2.115,-1.225 2.115,-2.475c0,-1.063 -0.665,-1.967 -1.598,-2.336l-1.098,-1.232l1.195,-1.342c0.135,-0.152 0.135,-0.381 0,-0.532l-1.195,-1.34l1.195,-1.337c0.135,-0.152 0.135,-0.382 0,-0.533l-1.195,-1.34l1.076,-1.203l1.477,0l2.772,11.395l-0.665,5.479l-4.079,0l0,-0.001z"/>
  </g>
  <defs>
   <filter height="53.59" width="42.461" y="304.827" x="253.769" filterUnits="userSpaceOnUse" id="Adobe_OpacityMaskFilter"/>
   <linearGradient y2="0.000004" x2="0.499998" y1="0.999986" x1="0.499998" id="SVGID_00000098923920889573404060000007050768229611050126_">
    <stop stop-color="#000000" offset="0"/>
    <stop stop-color="#020202" offset="0.3726"/>
    <stop stop-color="#090909" offset="0.5069"/>
    <stop stop-color="#141414" offset="0.6026"/>
    <stop stop-color="#252525" offset="0.68"/>
    <stop stop-color="#3B3B3B" offset="0.7463"/>
    <stop stop-color="#575757" offset="0.805"/>
    <stop stop-color="#777777" offset="0.8581"/>
    <stop stop-color="#9D9D9D" offset="0.9069"/>
    <stop stop-color="#C8C8C8" offset="0.9523"/>
    <stop stop-color="#F6F6F6" offset="0.9926"/>
    <stop stop-color="#FFFFFF" offset="1"/>
   </linearGradient>
  </defs>
  <mask id="SVGID_1_" height="53.59" width="42.461" y="304.827" x="253.769" maskUnits="userSpaceOnUse">
   <g id="svg_6" filter="url(#Adobe_OpacityMaskFilter)">
    <rect id="svg_7" fill="url(#SVGID_00000098923920889573404060000007050768229611050126_)" height="27.608" width="84.444" y="304.827" x="233.556"/>
   </g>
  </mask>
 </g>
</svg>