<svg width="60" height="60" xmlns="http://www.w3.org/2000/svg">
 <g>
  <title>background</title>
  <rect fill="none" id="canvas_background" height="62" width="62" y="-1" x="-1"/>
 </g>
 <g>
  <title>Layer 1</title>
  <rect x="0" y="0" stroke="null" id="svg_1" fill="#FFFFFF" height="80.000009" width="62.000006"/>
  <g id="svg_44">
   <path id="svg_45" fill="#4D4D4D" d="m30.10219,5.550467c-10.457,0 -18.965,8.508 -18.965,18.965c0,10.457 8.508,18.965 18.965,18.965s18.965,-8.508 18.965,-18.965c0,-10.458 -8.508,-18.965 -18.965,-18.965zm0,0.951c6.087,0 11.469,3.044 14.731,7.681l-29.464,0c3.262,-4.637 8.645,-7.681 14.733,-7.681zm-15.35,8.633l30.697,0c1.182,1.926 2.009,4.086 2.396,6.396l-35.489,0c0.389,-2.31 1.215,-4.471 2.396,-6.396zm15.35,27.394c-9.933,0 -18.014,-8.081 -18.014,-18.014c0,-0.688 0.047,-1.364 0.123,-2.032l35.781,0c0.075,0.668 0.122,1.345 0.122,2.032c0.001,9.933 -8.08,18.014 -18.012,18.014z"/>
   <path id="svg_46" fill="#4D4D4D" d="m24.62719,21.056467l4.967,0l0,-5.445l-4.967,0l0,5.445zm1.02,-4.507c0,-0.263 0.213,-0.476 0.477,-0.476l1.972,0c0.263,0 0.476,0.213 0.476,0.476l0,3.567c0,0.264 -0.213,0.477 -0.476,0.477l-1.972,0c-0.264,0 -0.477,-0.213 -0.477,-0.477l0,-3.567z"/>
   <rect id="svg_47" fill="#4D4D4D" height="2.617" width="1.02" y="17.024467" x="26.59919"/>
   <rect id="svg_48" fill="#4D4D4D" height="2.617" width="1.021" y="17.024467" x="32.58219"/>
   <path id="svg_49" fill="#4D4D4D" d="m18.64319,15.616467l0,5.432c0.016,0 0.027,0.008 0.043,0.008l4.926,0l0,-5.445l-4.926,0c-0.016,-0.001 -0.027,0.005 -0.043,0.005zm1.022,0.933c0,-0.263 0.212,-0.476 0.475,-0.476l1.973,0c0.262,0 0.476,0.213 0.476,0.476l0,3.567c0,0.264 -0.214,0.477 -0.476,0.477l-1.973,0c-0.263,0 -0.475,-0.213 -0.475,-0.477l0,-3.567z"/>
   <rect id="svg_50" fill="#4D4D4D" height="2.617" width="1.02" y="17.024467" x="20.61619"/>
   <path id="svg_51" fill="#4D4D4D" d="m36.59119,15.610467l0,5.445l4.923,0c0.018,0 0.029,-0.008 0.045,-0.008l0,-5.432c-0.016,0 -0.027,-0.006 -0.045,-0.006l-4.923,0l0,0.001zm3.946,4.506c0,0.264 -0.212,0.477 -0.475,0.477l-1.973,0c-0.262,0 -0.476,-0.213 -0.476,-0.477l0,-3.567c0,-0.263 0.214,-0.476 0.476,-0.476l1.973,0c0.263,0 0.475,0.213 0.475,0.476l0,3.567z"/>
   <path id="svg_52" fill="#4D4D4D" d="m30.60819,21.056467l4.969,0l0,-5.445l-4.969,0l0,5.445zm1.023,-4.507c0,-0.263 0.213,-0.476 0.476,-0.476l1.972,0c0.264,0 0.477,0.213 0.477,0.476l0,3.567c0,0.264 -0.213,0.477 -0.477,0.477l-1.972,0c-0.263,0 -0.476,-0.213 -0.476,-0.477l0,-3.567z"/>
   <rect id="svg_53" fill="#4D4D4D" height="2.617" width="1.02" y="17.024467" x="38.56719"/>
   <path id="svg_54" fill="#4D4D4D" d="m39.09919,54.225467l0,-4.277c2.272,-0.357 4.013,-2.297 4.013,-4.654l0,-3.533c5.223,-3.949 8.604,-10.209 8.604,-17.246c0,-11.918 -9.696,-21.614 -21.614,-21.614s-21.615,9.696 -21.615,21.614c0,7.037 3.381,13.297 8.603,17.246c0,0.867 0,2.119 0,3.533c0,2.357 1.742,4.297 4.014,4.654l0,4.277l0.951,0l0,6.026l-4.965,0c-0.527,0 -0.952,0.426 -0.952,0.952c0,0.525 0.425,0.951 0.952,0.951l5.916,0c0.527,0 0.952,-0.426 0.952,-0.951l0,-6.979l0.952,0l0,-4.203l3.287,0l0,4.203l0.952,0l0,6.979c0,0.525 0.426,0.951 0.952,0.951c0.525,0 0.951,-0.426 0.951,-0.951l0,-6.979l0.951,0l0,-4.203l3.289,0l0,4.203l0.951,0l0,6.979c0,0.525 0.425,0.951 0.951,0.951l5.916,0c0.526,0 0.952,-0.426 0.952,-0.951c0,-0.526 -0.426,-0.952 -0.952,-0.952l-4.965,0l0,-6.026l0.954,0zm-8.997,-10c-10.869,0 -19.711,-8.842 -19.711,-19.711c0,-10.869 8.842,-19.711 19.711,-19.711c10.868,0 19.711,8.842 19.711,19.711c0,10.87 -8.843,19.711 -19.711,19.711z"/>
   <path id="svg_55" fill="#4D4D4D" d="m30.10219,30.450467c-6.678,0 -12.089,1.122 -12.089,2.506c0,1.383 5.411,2.506 12.089,2.506c6.676,0 12.087,-1.123 12.087,-2.506c0,-1.384 -5.411,-2.506 -12.087,-2.506zm-0.952,2.981l-8.525,0c-0.264,0 -0.475,-0.214 -0.475,-0.476c0,-0.264 0.212,-0.477 0.475,-0.477l8.525,0l0,0.953zm10.427,0l-6.484,0l0,-0.952l6.484,0c0.264,0 0.476,0.213 0.476,0.477c-0.001,0.262 -0.213,0.475 -0.476,0.475z"/>
  </g>
  <defs>
   <filter height="59.256" width="43.229" y="304.826" x="353.385" filterUnits="userSpaceOnUse" id="Adobe_OpacityMaskFilter_00000041291289041586060010000006725945544306540444_"/>
  </defs>
  <mask id="SVGID_00000037667693043951045060000009732611971103538311_" height="59.256" width="43.229" y="304.826" x="353.385" maskUnits="userSpaceOnUse">
   <g id="svg_56" filter="url(#Adobe_OpacityMaskFilter_00000041291289041586060010000006725945544306540444_)">
    <rect id="svg_57" fill="url(#SVGID_00000077302203780013595940000008692162890935837830_)" height="27.608" width="84.444" y="304.827" x="333.284"/>
   </g>
  </mask>
 </g>
</svg>