<svg width="60" height="60" xmlns="http://www.w3.org/2000/svg">
 <g>
  <title>background</title>
  <rect fill="none" id="canvas_background" height="62" width="62" y="-1" x="-1"/>
 </g>
 <g>
  <title>Layer 1</title>
  <rect stroke="null" x="-0.289859" y="0" id="svg_1" fill="#FFFFFF" height="60.231891" width="59.89856"/>
  <path stroke="null" id="svg_169" fill="#4D4D4D" d="m39.256684,34.698688c0.574539,-2.209186 2.67137,-5.447047 3.564993,-6.831584c1.704625,-2.639066 2.607744,-5.699471 2.607744,-8.846232c0,-9.036973 -7.358851,-16.389538 -16.402384,-16.389538c-9.043533,0 -16.400485,7.352564 -16.400485,16.389538c0,3.050916 0.848989,6.027812 2.455799,8.608991l0.099713,0.163222c1.169971,1.877049 2.934424,4.715396 3.500416,6.718657l1.588767,3.918268c-1.06266,0.192639 -1.869864,1.117878 -1.869864,2.234808c0,0.630111 0.256406,1.199489 0.667605,1.61039c-0.412149,0.413748 -0.667605,0.982177 -0.667605,1.612288c0,0.628213 0.256406,1.197591 0.667605,1.61039c-0.412149,0.41185 -0.667605,0.982177 -0.667605,1.61039c0,1.258325 1.019926,2.277511 2.279164,2.277511l0.319083,0l0,1.320007c0,1.158684 0.939206,2.098157 2.09968,2.098157l2.282963,0c-0.00095,0.023724 -0.007597,0.048397 -0.007597,0.074019c0,2.014648 1.634351,3.647813 3.649512,3.647813c2.01706,0 3.651411,-1.633165 3.651411,-3.647813c0,-0.025622 -0.007597,-0.050295 -0.007597,-0.074019l2.282963,0c1.158575,0 2.09968,-0.939473 2.09968,-2.098157l0,-1.320007l0.320033,0c1.258289,0 2.278214,-1.019186 2.278214,-2.277511c0,-0.628213 -0.253557,-1.199489 -0.668555,-1.61039c0.414998,-0.413748 0.668555,-0.982177 0.668555,-1.61039c0,-0.630111 -0.253557,-1.199489 -0.668555,-1.612288c0.414998,-0.41185 0.668555,-0.980279 0.668555,-1.61039c0,-1.095103 -0.774916,-2.010852 -1.808137,-2.228165l1.387441,-3.66015l0.02849,-0.077815zm-22.783094,-7.706527l-0.099713,-0.163222c-1.457715,-2.342989 -2.227883,-5.043738 -2.227883,-7.809015c0,-8.201886 6.675102,-14.872146 14.881042,-14.872146c8.20594,0 14.881992,6.67026 14.881992,14.872146c0,2.85448 -0.8167,5.629248 -2.363683,8.023481c-1.44442,2.233859 -3.173736,5.06936 -3.749225,7.232046l-1.558378,4.110907l-3.675152,0c-0.710339,-10.576191 4.612458,-19.759305 4.666589,-19.850405c0.075972,-0.130008 0.069325,-0.291332 -0.017094,-0.413748l-2.628636,-3.704751c-0.070274,-0.102488 -0.186132,-0.161324 -0.309586,-0.161324c-0.122505,0 -0.239312,0.059785 -0.309586,0.161324l-2.319999,3.267279l-2.314301,-3.267279c-0.141498,-0.202129 -0.477675,-0.202129 -0.620123,0l-2.315251,3.267279l-2.313352,-3.267279c-0.142448,-0.202129 -0.478624,-0.202129 -0.620123,0l-2.620089,3.704751c-0.087368,0.122416 -0.093066,0.28374 -0.017094,0.413748c0.05413,0.0911 5.376928,9.274214 4.666589,19.850405l-3.59823,0l-1.758755,-4.330118c-0.634367,-2.204441 -2.452001,-5.127246 -3.659958,-7.06408zm9.778564,11.395146c0.647662,-9.886295 -3.847039,-18.558867 -4.651394,-20.021219l2.171853,-3.070844l2.313352,3.267279c0.070274,0.099641 0.187081,0.159426 0.309586,0.159426c0.123455,0 0.239312,-0.059785 0.309586,-0.159426l2.315251,-3.267279l2.314301,3.267279c0.071224,0.099641 0.186132,0.159426 0.310536,0.159426c0.122505,0 0.238363,-0.059785 0.309586,-0.159426l2.319999,-3.269177l2.178501,3.072742c-0.806254,1.46425 -5.298107,10.134923 -4.651394,20.021219l-5.549765,0z"/>
  <defs>
   <filter height="56.795" width="34.541" y="405.092" x="257.728" filterUnits="userSpaceOnUse" id="Adobe_OpacityMaskFilter_00000072964877075352198030000004169339417217013411_"/>
  </defs>
  <mask id="SVGID_00000039099565164625989160000000932578872845406617_" height="56.795" width="34.541" y="405.092" x="257.728" maskUnits="userSpaceOnUse">
   <g id="svg_170" filter="url(#Adobe_OpacityMaskFilter_00000072964877075352198030000004169339417217013411_)">
    <rect id="svg_171" fill="url(#SVGID_00000021088596421231465000000010953515739068910221_)" height="27.607" width="84.444" y="405.092" x="233.556"/>
   </g>
  </mask>
 </g>
</svg>