<svg width="60" height="60" xmlns="http://www.w3.org/2000/svg">
 <g>
  <title>background</title>
  <rect fill="none" id="canvas_background" height="62" width="62" y="-1" x="-1"/>
 </g>
 <g>
  <title>Layer 1</title>
  <rect x="0" y="0" stroke="null" id="svg_1" fill="#FFFFFF" height="75.000009" width="71.000011"/>
  <g stroke="null" id="svg_196">
   <path stroke="null" id="svg_197" fill="#4D4D4D" d="m28.23765,11.361862l0.164511,1.7314c0.329952,-0.267723 0.698941,-0.474305 1.089308,-0.626231l0.036248,-1.346027c0.038107,-1.431253 -1.096743,-2.625354 -2.534592,-2.65963c-0.131981,-0.003706 -0.259315,0.012969 -0.386648,0.028718c0.895054,0.664213 1.517781,1.676743 1.631173,2.87177z"/>
   <path stroke="null" id="svg_198" fill="#4D4D4D" d="m52.486829,24.692435c-1.444355,-0.781863 -3.248405,-0.248269 -4.032855,1.190395l-4.064456,6.475379c-0.21749,0.347392 -0.344824,0.298294 -0.281621,-0.106533c0.261174,-1.680449 0.931302,-5.791712 1.421119,-7.329499c1.10232,-3.450756 6.042312,-13.174015 6.042312,-13.174015c0.598562,-1.302487 0.022307,-2.840274 -1.284491,-3.437787c-1.306797,-0.593808 -2.851532,-0.022233 -3.449165,1.28118l-5.24392,11.433352c-0.171018,0.372404 -0.463792,0.633642 -0.655258,0.582691c-0.189606,-0.052804 -0.257456,-0.412238 -0.152429,-0.808728l3.977088,-14.795176c0.371777,-1.382155 -0.45171,-2.804145 -1.838439,-3.175622c-1.388588,-0.370551 -2.815284,0.450219 -3.187991,1.835154l-3.977088,14.793323c-0.106886,0.39649 -0.304857,0.685519 -0.444274,0.649391c-0.137558,-0.037981 -0.219349,-0.398342 -0.181241,-0.805022l1.194335,-12.517213c0.136628,-1.425695 -0.910855,-2.6902 -2.344986,-2.826378c-1.430413,-0.135251 -2.699104,0.909703 -2.835732,2.336324l-0.564172,5.925111c0.098521,-0.011117 0.192395,-0.028718 0.291845,-0.032423l0.105957,0c2.232523,0 4.028208,1.742516 4.086763,3.967675l-0.054837,12.122576c0.489817,1.150561 2.12006,5.125647 2.864545,8.659777c0.603209,2.87177 0.533501,6.352171 0.487958,8.656072c-0.01673,0.803169 -0.030672,1.561873 -0.001859,1.858313c0.037178,0.385373 0.279762,1.296929 0.550231,2.219601c0.215631,-0.880985 0.481452,-1.852755 0.696153,-2.319649c0.385719,-0.835593 1.444355,-2.378938 2.090318,-3.033886c1.80405,-1.833301 5.241131,-4.430864 6.94759,-6.354024c1.746424,-1.972258 5.035724,-9.250806 5.035724,-9.250806c0.782591,-1.439591 0.247232,-3.239542 -1.197123,-4.019552z"/>
   <path stroke="null" id="svg_199" fill="#4D4D4D" d="m36.42047,37.240218c-0.840217,-3.992687 -2.908228,-8.690348 -2.908228,-8.690348c0.003718,-0.070405 0.014871,-0.140809 0.013012,-0.213067l0.054837,-12.143883c-0.037178,-1.433106 -1.232442,-2.56236 -2.669361,-2.524379c-1.43692,0.034276 -2.57177,1.228377 -2.532733,2.661483l0.175665,6.64398c0.011153,0.408532 -0.122687,0.78001 -0.297422,0.825402c-0.174735,0.049098 -0.348541,-0.244564 -0.387578,-0.651243l-1.109755,-11.644566c-0.136628,-1.425695 -1.406248,-2.473428 -2.836661,-2.337251c-1.433202,0.137104 -2.480684,1.402536 -2.344986,2.828231l1.194335,12.51536c0.039037,0.40668 -0.042754,0.767041 -0.180312,0.805022c-0.139417,0.036129 -0.338317,-0.252901 -0.445203,-0.647538l-3.977088,-14.795176c-0.371777,-1.384008 -1.799402,-2.205705 -3.187991,-1.834228c-1.387659,0.370551 -2.212075,1.79532 -1.839369,3.177475l3.976159,14.793323c0.105957,0.398342 0.037178,0.757777 -0.152429,0.808728c-0.191465,0.052804 -0.483311,-0.208435 -0.654328,-0.580839l-5.24392,-11.435204c-0.597632,-1.302487 -2.142367,-1.874062 -3.449165,-1.279327c-1.306797,0.595661 -1.882123,2.1353 -1.28542,3.437787c0,0 4.940921,9.721406 6.043241,13.174015c0.489817,1.535934 1.159945,5.647197 1.421119,7.329499c0.063202,0.405753 -0.063202,0.452072 -0.281621,0.104681l-4.065386,-6.473526c-0.783521,-1.438664 -2.5885,-1.974111 -4.032855,-1.192248c-1.443426,0.781863 -1.978785,2.579961 -1.195264,4.018626c0,0 3.2893,7.278548 5.036654,9.250806c1.706458,1.92316 5.14261,4.521649 6.94759,6.354024c0.645963,0.656802 1.704599,2.198294 2.089389,3.035739c0.446133,0.964359 1.104179,4.103852 1.104179,4.103852l18.587939,-4.964457c0,0 -0.999152,-3.046856 -1.104179,-4.103852c-0.128263,-1.30434 0.343894,-6.520771 -0.462863,-10.356901z"/>
  </g>
  <defs>
   <filter height="58.209" width="53.992" y="405.092" x="348.004" filterUnits="userSpaceOnUse" id="Adobe_OpacityMaskFilter_00000132070474872453604430000018147185675515279776_"/>
  </defs>
  <mask id="SVGID_00000083786545402707945150000017476483310248775854_" height="58.209" width="53.992" y="405.092" x="348.004" maskUnits="userSpaceOnUse">
   <g id="svg_200" filter="url(#Adobe_OpacityMaskFilter_00000132070474872453604430000018147185675515279776_)">
    <rect id="svg_201" fill="url(#SVGID_00000148644411414398323010000013293326912912731812_)" height="27.607" width="84.444" y="405.092" x="333.284"/>
   </g>
  </mask>
 </g>
</svg>